<?xml version="1.0" standalone="no"?><!DOCTYPE svg PUBLIC "-//W3C//DTD SVG 1.1//EN" "http://www.w3.org/Graphics/SVG/1.1/DTD/svg11.dtd"><svg t="1555310267954" class="icon" style="" viewBox="0 0 1024 1024" version="1.1" xmlns="http://www.w3.org/2000/svg" p-id="3238" xmlns:xlink="http://www.w3.org/1999/xlink" width="200" height="200"><defs><style type="text/css"></style></defs><path d="M268.8 294.4h486.4c21.20704 0 38.4 17.19296 38.4 38.4 0 21.20704-17.19296 38.4-38.4 38.4H268.8c-21.20704 0-38.4-17.19296-38.4-38.4 0-21.20704 17.19296-38.4 38.4-38.4z m0 179.2h486.4c21.20704 0 38.4 17.19296 38.4 38.4 0 21.20704-17.19296 38.4-38.4 38.4H268.8c-21.20704 0-38.4-17.19296-38.4-38.4 0-21.20704 17.19296-38.4 38.4-38.4z m0 179.2h486.4c21.20704 0 38.4 17.19296 38.4 38.4 0 21.20704-17.19296 38.4-38.4 38.4H268.8c-21.20704 0-38.4-17.19296-38.4-38.4 0-21.20704 17.19296-38.4 38.4-38.4zM870.4 244.736c0-28.27776 22.92224-51.2 51.2-51.2s51.2 22.92224 51.2 51.2v661.60128C972.8 971.50208 919.47008 1024 854.08256 1024H169.91744C104.52992 1024 51.2 971.50208 51.2 906.33728V117.66272C51.2 52.49792 104.52992 0 169.91744 0h576.1408c28.2752 0 51.2 22.92224 51.2 51.2s-22.9248 51.2-51.2 51.2H169.91744C160.72704 102.4 153.6 109.4144 153.6 117.66272v788.67456c0 8.24832 7.12704 15.26272 16.31744 15.26272h684.16512c9.1904 0 16.31744-7.0144 16.31744-15.26272V244.736z" p-id="3239"></path></svg>